<svg width="32" height="32" viewBox="0 0 32 32" fill="none" xmlns="http://www.w3.org/2000/svg">
  <rect width="32" height="32" rx="6" fill="#09090B" />
  <path
    d="M16.2292 23.706L16.2342 23.709L16.2392 23.712C16.9234 24.1097 17.7028 24.3028 18.5647 24.3028C19.4265 24.3028 20.2006 24.1098 20.8726 23.7097L20.8758 23.7079L20.8789 23.706C21.5398 23.2968 22.0601 22.7443 22.4362 22.0549C22.8147 21.3608 23 20.5857 23 19.7394V8.67646V8.25629H22.5799H20.5296H20.1094V8.67646V20.017C20.1094 20.3307 20.0348 20.605 19.8902 20.8498L19.8865 20.8559L19.8831 20.8623C19.7466 21.1126 19.5621 21.3075 19.326 21.4537C19.0943 21.5972 18.8436 21.6684 18.5647 21.6684C18.2871 21.6684 18.0273 21.5977 17.7784 21.4514C17.5409 21.3036 17.3476 21.1053 17.1966 20.8498C17.0519 20.605 16.9773 20.3307 16.9773 20.017V12.5634C16.9773 11.717 16.7921 10.9419 16.4135 10.2479C16.0359 9.55562 15.5056 9.00875 14.828 8.61403C14.1424 8.20034 13.3543 8 12.478 8C11.6143 8 10.8337 8.20103 10.1494 8.61403C9.4717 9.00874 8.94148 9.55561 8.56388 10.2479C8.1853 10.9419 8 11.717 8 12.5634V23.6263V24.0465H8.42018H10.4704H10.8906V23.6263V12.2858C10.8906 11.9688 10.9598 11.692 11.0922 11.4468C11.2426 11.1943 11.4348 10.998 11.6703 10.8513C11.9166 10.7067 12.1831 10.6343 12.478 10.6343C12.7744 10.6343 13.042 10.7074 13.2894 10.8535C13.5416 11.0026 13.7398 11.2008 13.8889 11.453C14.0335 11.6978 14.1081 11.9721 14.1081 12.2858V19.7394C14.1081 20.5857 14.2934 21.3608 14.672 22.0549C15.048 22.7443 15.5684 23.2968 16.2292 23.706Z"
    fill="#09090B" />
  <path
    d="M8.56388 10.2479C8.94148 9.55561 9.4717 9.00874 10.1494 8.61403C10.8337 8.20103 11.6143 8 12.478 8C13.3543 8 14.1424 8.20034 14.828 8.61403C15.5056 9.00875 16.0359 9.55562 16.4135 10.2479C16.7921 10.9419 16.9773 11.717 16.9773 12.5634V20.017C16.9773 20.3307 17.0519 20.605 17.1966 20.8498C17.3476 21.1053 17.5409 21.3036 17.7784 21.4514C18.0273 21.5977 18.2871 21.6684 18.5647 21.6684C18.8436 21.6684 19.0943 21.5972 19.326 21.4537C19.5621 21.3075 19.7466 21.1126 19.8831 20.8623L19.8865 20.8559L19.8902 20.8498C20.0348 20.605 20.1094 20.3307 20.1094 20.017V8.67646V8.25629H20.5296H22.5799H23V8.67646V19.7394C23 20.5857 22.8147 21.3608 22.4362 22.0549C22.0601 22.7443 21.5398 23.2968 20.8789 23.706L20.8758 23.7079L20.8726 23.7097C20.2006 24.1098 19.4265 24.3028 18.5647 24.3028C17.7028 24.3028 16.9234 24.1097 16.2392 23.712L16.2342 23.709L16.2292 23.706C15.5684 23.2968 15.048 22.7443 14.672 22.0549C14.2934 21.3608 14.1081 20.5857 14.1081 19.7394V12.2858C14.1081 11.9721 14.0335 11.6978 13.8889 11.453C13.7398 11.2008 13.5416 11.0026 13.2894 10.8535C13.042 10.7074 12.7744 10.6343 12.478 10.6343C12.1831 10.6343 11.9166 10.7067 11.6703 10.8513C11.4348 10.998 11.2426 11.1943 11.0922 11.4468C10.9598 11.692 10.8906 11.9688 10.8906 12.2858V23.6263V24.0465H10.4704H8.42018H8V23.6263V12.5634C8 11.717 8.1853 10.9419 8.56388 10.2479ZM8.56388 10.2479L8.92604 10.4454"
    stroke="#2DD4BF" />
</svg>