<svg width="40" height="40" viewBox="0 0 40 40" fill="none" xmlns="http://www.w3.org/2000/svg">
  <rect width="40" height="40" rx="20" fill="#18181B" />
  <path
    d="M29.3655 8.46756L26.1962 8.00523C26.1567 7.99742 26.1161 7.99837 26.077 8.008C26.038 8.01764 26.0016 8.03573 25.9703 8.06099L24.6207 9.7974C24.5771 9.85087 24.5474 9.9143 24.5342 9.98203C24.521 10.0498 24.5248 10.1197 24.5452 10.1856C24.5826 10.3155 24.4703 10.4263 24.3391 10.408L23.2323 10.168C23.1465 10.1483 23.0568 10.1534 22.9738 10.1828C22.8908 10.2122 22.8179 10.2646 22.7636 10.3339L18.3753 15.8784C18.3004 15.9892 18.1501 16.0266 18.0188 15.9708L16.3494 15.2318C16.2782 15.1965 16.1987 15.1813 16.1195 15.1878C16.0403 15.1942 15.9644 15.2221 15.8998 15.2685L15.0556 15.8417C14.9875 15.8882 14.9084 15.9161 14.8262 15.9225C14.7439 15.9289 14.6614 15.9137 14.5869 15.8784L14.174 15.6751C14.1121 15.6453 14.0445 15.6295 13.9758 15.6286C13.9072 15.6278 13.8392 15.642 13.7766 15.6702C13.7141 15.6985 13.6584 15.7401 13.6137 15.7922C13.5689 15.8442 13.5361 15.9055 13.5175 15.9715L13.2176 17.283C13.1427 17.5971 13.274 17.9112 13.5557 18.0778L14.193 18.466L16.2372 19.7041L17.2311 20.314C17.5127 20.4806 17.8692 20.4439 18.1127 20.2406L19.782 18.7985C19.9133 18.6877 20.1194 18.6503 20.2691 18.7435L20.7759 19.0018C20.857 19.0453 20.9499 19.0616 21.041 19.0484C21.1321 19.0352 21.2165 18.9931 21.282 18.9284L22.1262 18.1519C22.1904 18.0919 22.2713 18.0526 22.3582 18.0394C22.4452 18.0262 22.5341 18.0396 22.6132 18.0778L23.8697 18.651C24.0574 18.7427 24.2826 18.6877 24.4139 18.5218L24.9955 17.7821L29.4029 12.2192C29.451 12.159 29.4829 12.0875 29.4953 12.0115C29.5078 11.9354 29.5005 11.8575 29.4741 11.7851C29.4478 11.7127 29.4032 11.6483 29.3447 11.5981C29.2863 11.5479 29.2159 11.5136 29.1403 11.4985L28.1648 11.2769C27.9587 11.2395 27.8648 10.9804 28.0152 10.8329L29.5342 8.96661C29.6838 8.74426 29.5913 8.50427 29.3655 8.46756ZM14.8304 19.6674C14.7366 19.6117 14.6427 19.7041 14.6801 19.7966L15.1488 21.0163C15.1869 21.1088 15.1869 21.2013 15.1678 21.2937L14.7549 22.8833C14.7366 22.9941 14.774 23.105 14.8488 23.1607L16.0304 24.0663C16.1433 24.1404 16.293 24.1404 16.3869 24.048L17.6249 22.9751C17.6998 22.92 17.7936 22.8833 17.8685 22.865L19.2752 22.7167C19.3691 22.6984 19.4065 22.5685 19.3126 22.5134L14.8304 19.6674ZM14.4175 23.7706C14.3772 23.7421 14.3305 23.7238 14.2816 23.7174C14.2326 23.711 14.1829 23.7167 14.1366 23.7339L13.1427 24.2139C13.0863 24.2322 13.0488 24.288 13.0114 24.3437L10.8917 29.5V29.5367C10.9108 29.5551 10.9292 29.5741 10.9673 29.5741L11.4543 29.3892H11.5108C11.5298 29.4076 11.5482 29.4443 11.5298 29.4626L10.0101 31.9218C9.97272 31.9769 10.0482 32.0326 10.0857 31.9769L15.5808 26.5432C15.6299 26.4926 15.6626 26.4284 15.6746 26.359L15.7869 24.9543C15.7873 24.9128 15.7791 24.8716 15.763 24.8334C15.7468 24.7952 15.723 24.7606 15.693 24.732L14.4175 23.7706Z"
    fill="#8257E6" />
</svg>